<svg xmlns="http://www.w3.org/2000/svg" viewBox="0 0 622.26 24.2"><defs><style>.cls-1{fill:#666;}</style></defs><title>Recurso 7</title><g id="Capa_2" data-name="Capa 2"><g id="Capa_1-2" data-name="Capa 1"><path class="cls-1" d="M5.42,7a4,4,0,0,1,2,.51A2.55,2.55,0,0,1,8.64,9.22l-.31.24A2.64,2.64,0,0,0,7.28,8a3,3,0,0,0-1.66-.46A2.77,2.77,0,0,0,3.25,9a8.3,8.3,0,0,0-.92,4.51,11.76,11.76,0,0,0,.37,3.23,4,4,0,0,0,1.1,1.92,2.66,2.66,0,0,0,1.79.63,2.47,2.47,0,0,0,1.83-.86,4.22,4.22,0,0,0,1-2.54l.29.33A4.52,4.52,0,0,1,7.52,19,3.48,3.48,0,0,1,4.9,20a4.71,4.71,0,0,1-2.61-.72,4.46,4.46,0,0,1-1.7-2.16A9.65,9.65,0,0,1,0,13.52,7.79,7.79,0,0,1,.76,9.88,5.12,5.12,0,0,1,5.42,7Zm5-6.12v16.2a2.65,2.65,0,0,0,.4,1.6,1.71,1.71,0,0,0,1.43.51v.51c-.5-.05-1-.07-1.49-.07a11.25,11.25,0,0,0-1.33.07A5.15,5.15,0,0,0,8.3,20V3.75a2.62,2.62,0,0,0-.38-1.59,1.69,1.69,0,0,0-1.44-.52v-.5c.51,0,1,.07,1.49.07A9.48,9.48,0,0,0,9.3,1.12,6.4,6.4,0,0,0,10.46.87Z"/><path class="cls-1" d="M19.32,7a4.26,4.26,0,0,1,3.3,1.29,5.73,5.73,0,0,1,1.19,4H15.34l0-.45H21.5a7.64,7.64,0,0,0-.19-2.18,3.8,3.8,0,0,0-.75-1.59,1.69,1.69,0,0,0-1.34-.6,2.46,2.46,0,0,0-1.95,1.1,6.53,6.53,0,0,0-1,3.51l.07.09c0,.24-.06.51-.07.79s0,.58,0,.87a6.87,6.87,0,0,0,.53,2.81,4.22,4.22,0,0,0,1.38,1.78A3,3,0,0,0,19.9,19a4.09,4.09,0,0,0,1.36-.23,3.09,3.09,0,0,0,1.2-.76,4.48,4.48,0,0,0,1-1.41l.48.19a4.9,4.9,0,0,1-2.37,2.75,4.58,4.58,0,0,1-2.11.46,5.38,5.38,0,0,1-3-.79A5.18,5.18,0,0,1,14.56,17a7.55,7.55,0,0,1-.66-3.23,9,9,0,0,1,.67-3.64,5.43,5.43,0,0,1,1.89-2.35A5,5,0,0,1,19.32,7Z"/><path class="cls-1" d="M33.1,7a2.34,2.34,0,0,1,1.14.27,2,2,0,0,1,.76.68,1.66,1.66,0,0,1,.28,1,1.59,1.59,0,0,1-.37,1,1.21,1.21,0,0,1-1,.46,1.39,1.39,0,0,1-.89-.32,1.18,1.18,0,0,1-.38-.93,1.23,1.23,0,0,1,.25-.78,2.27,2.27,0,0,1,.57-.51A.59.59,0,0,0,33,7.62a2.31,2.31,0,0,0-1.37.44,4.11,4.11,0,0,0-1,1.14,6.17,6.17,0,0,0-.67,1.48,4.93,4.93,0,0,0-.24,1.45v5.09a1.66,1.66,0,0,0,.68,1.57,3.78,3.78,0,0,0,1.86.39v.51l-1.56-.06c-.67,0-1.38,0-2.14,0-.54,0-1.08,0-1.62,0l-1.21.06v-.51A2.24,2.24,0,0,0,27,18.83a1.78,1.78,0,0,0,.42-1.37V9.94a2.62,2.62,0,0,0-.39-1.59,1.68,1.68,0,0,0-1.44-.52v-.5c.51,0,1,.07,1.49.07a11.32,11.32,0,0,0,1.33-.08,6.5,6.5,0,0,0,1.17-.26v3a6.18,6.18,0,0,1,.75-1.4,4.81,4.81,0,0,1,1.19-1.19A2.65,2.65,0,0,1,33.1,7Z"/><path class="cls-1" d="M41.66,7A4.26,4.26,0,0,1,45,8.28a5.68,5.68,0,0,1,1.19,4H37.68l0-.45h6.19a8,8,0,0,0-.19-2.18,3.81,3.81,0,0,0-.76-1.59,1.67,1.67,0,0,0-1.33-.6,2.46,2.46,0,0,0-2,1.1,6.53,6.53,0,0,0-1,3.51l.07.09c0,.24,0,.51-.07.79s0,.58,0,.87a6.71,6.71,0,0,0,.53,2.81,4.22,4.22,0,0,0,1.38,1.78,3,3,0,0,0,1.76.62,4.15,4.15,0,0,0,1.37-.23,3.25,3.25,0,0,0,1.2-.76,4.48,4.48,0,0,0,1-1.41l.48.19a4.93,4.93,0,0,1-.87,1.53,4.67,4.67,0,0,1-1.51,1.22,4.58,4.58,0,0,1-2.11.46,5.34,5.34,0,0,1-3-.79A5.14,5.14,0,0,1,36.9,17a7.55,7.55,0,0,1-.66-3.23,9,9,0,0,1,.67-3.64,5.38,5.38,0,0,1,1.9-2.35A5,5,0,0,1,41.66,7Z"/><path class="cls-1" d="M54,7a6.06,6.06,0,0,1,1.48.19,4.52,4.52,0,0,1,1.3.58,2.66,2.66,0,0,1,.84.83,1.92,1.92,0,0,1,.29,1,1.31,1.31,0,0,1-.36,1,1.24,1.24,0,0,1-.91.35,1.45,1.45,0,0,1-.93-.31,1.08,1.08,0,0,1-.4-.89,1.32,1.32,0,0,1,.31-.89,1.36,1.36,0,0,1,.7-.43,1.77,1.77,0,0,0-.85-.72,3.06,3.06,0,0,0-1.31-.29,2.78,2.78,0,0,0-1.2.29,3.11,3.11,0,0,0-1.1,1,5.2,5.2,0,0,0-.82,1.8,11.34,11.34,0,0,0-.31,2.84,9.57,9.57,0,0,0,.48,3.36,3.68,3.68,0,0,0,1.26,1.79,3,3,0,0,0,1.72.54,3.65,3.65,0,0,0,1.27-.24A3.61,3.61,0,0,0,56.66,18a4.31,4.31,0,0,0,1-1.45l.45.17a5.55,5.55,0,0,1-.79,1.55,4.46,4.46,0,0,1-1.44,1.28,4.31,4.31,0,0,1-2.18.5A4.9,4.9,0,0,1,51,19.26a5.42,5.42,0,0,1-1.91-2.2,7.58,7.58,0,0,1-.71-3.4,8,8,0,0,1,.71-3.46,5.68,5.68,0,0,1,2-2.36A5.18,5.18,0,0,1,54,7Z"/><path class="cls-1" d="M63.41.9v9a4,4,0,0,1,1.74-2.25A4.67,4.67,0,0,1,67.49,7,4.18,4.18,0,0,1,69,7.23a2.83,2.83,0,0,1,1,.67,2.79,2.79,0,0,1,.65,1.2,7.79,7.79,0,0,1,.19,2v6.41a1.78,1.78,0,0,0,.42,1.37,2.24,2.24,0,0,0,1.41.35v.51l-1.25-.06c-.56,0-1.11,0-1.63,0s-1,0-1.55,0l-1.14.06v-.51a1.74,1.74,0,0,0,1.22-.35,2,2,0,0,0,.36-1.37V10.52a7.35,7.35,0,0,0-.12-1.37,1.81,1.81,0,0,0-.54-1,1.88,1.88,0,0,0-1.28-.38A2.91,2.91,0,0,0,65,8.31a3.65,3.65,0,0,0-1.19,1.54,5.54,5.54,0,0,0-.43,2.25v5.36a2,2,0,0,0,.36,1.37,1.74,1.74,0,0,0,1.22.35v.51l-1.14-.06c-.5,0-1,0-1.55,0s-1.07,0-1.63,0l-1.25.06v-.51a2.24,2.24,0,0,0,1.41-.35,1.78,1.78,0,0,0,.42-1.37V3.78a2.67,2.67,0,0,0-.39-1.6,1.7,1.7,0,0,0-1.44-.52v-.5c.52.05,1,.07,1.49.07a11.19,11.19,0,0,0,1.33-.08A7.27,7.27,0,0,0,63.41.9Z"/><path class="cls-1" d="M79.63,7a5.69,5.69,0,0,1,2.76.67,4.82,4.82,0,0,1,2,2.12,8.22,8.22,0,0,1,.73,3.74,8.14,8.14,0,0,1-.73,3.73,4.77,4.77,0,0,1-2,2.1,5.58,5.58,0,0,1-2.76.67,5.65,5.65,0,0,1-2.75-.67,4.72,4.72,0,0,1-2-2.1,8.14,8.14,0,0,1-.74-3.73,8.21,8.21,0,0,1,.74-3.74,4.77,4.77,0,0,1,2-2.12A5.77,5.77,0,0,1,79.63,7Zm0,.48a2.59,2.59,0,0,0-2.24,1.42,9.11,9.11,0,0,0-.88,4.63,9.06,9.06,0,0,0,.88,4.62,2.57,2.57,0,0,0,2.24,1.4,2.59,2.59,0,0,0,2.25-1.4,9.19,9.19,0,0,0,.87-4.62,9.23,9.23,0,0,0-.87-4.63A2.62,2.62,0,0,0,79.63,7.47Z"/><path class="cls-1" d="M102.67,7.06V21.8a1.44,1.44,0,0,0,.61,1.38,3.46,3.46,0,0,0,1.69.35V24L103.51,24c-.62,0-1.29,0-2,0-.5,0-1,0-1.48,0L98.93,24v-.5a1.92,1.92,0,0,0,1.22-.31,1.53,1.53,0,0,0,.36-1.18V9.94a2.7,2.7,0,0,0-.38-1.59,1.69,1.69,0,0,0-1.44-.52v-.5c.51,0,1,.07,1.48.07a11.49,11.49,0,0,0,1.34-.08A6.38,6.38,0,0,0,102.67,7.06ZM106.51,7a3.93,3.93,0,0,1,2.28.69,4.64,4.64,0,0,1,1.6,2,8.06,8.06,0,0,1,.58,3.26,10.49,10.49,0,0,1-.31,2.56,7.51,7.51,0,0,1-1,2.28,5.09,5.09,0,0,1-1.7,1.63,4.89,4.89,0,0,1-2.51.61,3.59,3.59,0,0,1-2-.52,2.69,2.69,0,0,1-1.11-1.28l.24-.33a3,3,0,0,0,1,1.13,2.67,2.67,0,0,0,1.59.45,2.63,2.63,0,0,0,2.09-.84,4.77,4.77,0,0,0,1-2.24,14.92,14.92,0,0,0,.3-3.11,12.85,12.85,0,0,0-.32-3.14,3.75,3.75,0,0,0-.93-1.83,2.14,2.14,0,0,0-1.54-.6,3,3,0,0,0-2.13,1,5.06,5.06,0,0,0-1.23,2.94l-.29-.33a5.1,5.1,0,0,1,1.46-3.17A4,4,0,0,1,106.51,7Z"/><path class="cls-1" d="M117.09,7a4,4,0,0,1,1.64.31,4.66,4.66,0,0,1,1,.58c.53.43.85.14,1-.86h.55c0,.45,0,1-.07,1.59s0,1.45,0,2.49h-.56a7.57,7.57,0,0,0-.49-1.73,3.37,3.37,0,0,0-1-1.38,2.71,2.71,0,0,0-1.75-.54,2.06,2.06,0,0,0-1.4.47,1.68,1.68,0,0,0-.57,1.38,1.88,1.88,0,0,0,.43,1.23,4.72,4.72,0,0,0,1.13,1l1.51,1a19.23,19.23,0,0,1,1.66,1.18A5.24,5.24,0,0,1,121.26,15a3.23,3.23,0,0,1,.44,1.7,2.94,2.94,0,0,1-.57,1.85,3.6,3.6,0,0,1-1.5,1.13,5.2,5.2,0,0,1-2,.38,5.33,5.33,0,0,1-1-.08,5.44,5.44,0,0,1-.9-.25,5.21,5.21,0,0,1-.49-.29,5.6,5.6,0,0,1-.49-.36.28.28,0,0,0-.43,0,1.58,1.58,0,0,0-.29.81h-.55c0-.51,0-1.14.07-1.88s0-1.71,0-2.92h.55a15.63,15.63,0,0,0,.48,2.35,3.27,3.27,0,0,0,1,1.57,2.78,2.78,0,0,0,1.87.56,2.46,2.46,0,0,0,1-.21,2,2,0,0,0,.83-.72,2.43,2.43,0,0,0,.34-1.35,2.18,2.18,0,0,0-.77-1.72,15.52,15.52,0,0,0-2-1.42c-.57-.37-1.11-.73-1.62-1.1A5.15,5.15,0,0,1,114,11.77a3,3,0,0,1-.47-1.68A3,3,0,0,1,114,8.33a2.86,2.86,0,0,1,1.31-1A4.66,4.66,0,0,1,117.09,7Z"/><path class="cls-1" d="M127.51,7.06v10.4a1.78,1.78,0,0,0,.42,1.37,2.23,2.23,0,0,0,1.4.35v.51l-1.23-.06c-.56,0-1.11,0-1.67,0s-1.1,0-1.66,0l-1.24.06v-.51a2.23,2.23,0,0,0,1.4-.35,1.78,1.78,0,0,0,.42-1.37V9.94A2.62,2.62,0,0,0,125,8.35a1.66,1.66,0,0,0-1.43-.52v-.5c.51,0,1,.07,1.48.07a11.19,11.19,0,0,0,1.33-.08A6.31,6.31,0,0,0,127.51,7.06Zm-1.25-5.73a1.47,1.47,0,0,1,1.08.45,1.52,1.52,0,0,1,.46,1.08,1.48,1.48,0,0,1-.46,1.08,1.5,1.5,0,0,1-2.16,0,1.47,1.47,0,0,1-.45-1.08,1.51,1.51,0,0,1,.45-1.08A1.47,1.47,0,0,1,126.26,1.33Z"/><path class="cls-1" d="M136.56,7a6,6,0,0,1,1.48.19,4.4,4.4,0,0,1,1.3.58,2.66,2.66,0,0,1,.84.83,1.92,1.92,0,0,1,.29,1,1.31,1.31,0,0,1-.36,1,1.22,1.22,0,0,1-.91.35,1.45,1.45,0,0,1-.93-.31,1.07,1.07,0,0,1-.39-.89,1.31,1.31,0,0,1,.3-.89,1.38,1.38,0,0,1,.71-.43,1.8,1.8,0,0,0-.86-.72,3,3,0,0,0-1.3-.29,2.75,2.75,0,0,0-1.2.29,3.14,3.14,0,0,0-1.11,1,5,5,0,0,0-.81,1.8,10.84,10.84,0,0,0-.32,2.84,9.57,9.57,0,0,0,.48,3.36A3.68,3.68,0,0,0,135,18.45a3,3,0,0,0,1.72.54,3.61,3.61,0,0,0,1.27-.24,3.75,3.75,0,0,0,1.23-.78,4.44,4.44,0,0,0,1-1.45l.46.17a5.59,5.59,0,0,1-.8,1.55,4.36,4.36,0,0,1-1.44,1.28,4.31,4.31,0,0,1-2.18.5,4.9,4.9,0,0,1-2.69-.76,5.5,5.5,0,0,1-1.91-2.2,7.58,7.58,0,0,1-.71-3.4,8,8,0,0,1,.71-3.46,5.75,5.75,0,0,1,2-2.36A5.18,5.18,0,0,1,136.56,7Z"/><path class="cls-1" d="M148.1,7a5.72,5.72,0,0,1,2.76.67,4.82,4.82,0,0,1,2,2.12,8.22,8.22,0,0,1,.73,3.74,8.14,8.14,0,0,1-.73,3.73,4.77,4.77,0,0,1-2,2.1,6,6,0,0,1-5.51,0,4.72,4.72,0,0,1-2-2.1,8.14,8.14,0,0,1-.74-3.73,8.21,8.21,0,0,1,.74-3.74,4.77,4.77,0,0,1,2-2.12A5.77,5.77,0,0,1,148.1,7Zm0,.48a2.59,2.59,0,0,0-2.24,1.42,9.11,9.11,0,0,0-.88,4.63,9.06,9.06,0,0,0,.88,4.62,2.57,2.57,0,0,0,2.24,1.4,2.59,2.59,0,0,0,2.25-1.4,9.19,9.19,0,0,0,.87-4.62,9.23,9.23,0,0,0-.87-4.63A2.62,2.62,0,0,0,148.1,7.47Z"/><path class="cls-1" d="M159,.87V17.46a1.78,1.78,0,0,0,.42,1.37,2.23,2.23,0,0,0,1.4.35v.51l-1.23-.06c-.56,0-1.11,0-1.67,0s-1.1,0-1.66,0l-1.25.06v-.51a2.24,2.24,0,0,0,1.41-.35,1.78,1.78,0,0,0,.42-1.37V3.75a2.62,2.62,0,0,0-.39-1.59A1.67,1.67,0,0,0,155,1.64v-.5c.52,0,1,.07,1.49.07a9.37,9.37,0,0,0,1.33-.09A6.33,6.33,0,0,0,159,.87Z"/><path class="cls-1" d="M167.64,7a5.75,5.75,0,0,1,2.76.67,4.81,4.81,0,0,1,1.95,2.12,8.21,8.21,0,0,1,.74,3.74,8.14,8.14,0,0,1-.74,3.73,4.75,4.75,0,0,1-1.95,2.1,6,6,0,0,1-5.51,0,4.79,4.79,0,0,1-2-2.1,8.14,8.14,0,0,1-.73-3.73,8.22,8.22,0,0,1,.73-3.74,4.84,4.84,0,0,1,2-2.12A5.74,5.74,0,0,1,167.64,7Zm0,.48a2.62,2.62,0,0,0-2.25,1.42,9.23,9.23,0,0,0-.87,4.63,9.19,9.19,0,0,0,.87,4.62,2.59,2.59,0,0,0,2.25,1.4,2.57,2.57,0,0,0,2.24-1.4,9.06,9.06,0,0,0,.88-4.62,9.11,9.11,0,0,0-.88-4.63A2.59,2.59,0,0,0,167.64,7.47Z"/><path class="cls-1" d="M179.32,24.2a11,11,0,0,1-2.4-.26,4.54,4.54,0,0,1-1.81-.83,1.79,1.79,0,0,1-.68-1.43,1.86,1.86,0,0,1,.67-1.44,4.51,4.51,0,0,1,1.82-.91l.15.38a1.53,1.53,0,0,0-.84.67,2.11,2.11,0,0,0-.31,1.13,1.84,1.84,0,0,0,1,1.69,5.18,5.18,0,0,0,2.65.59,8.31,8.31,0,0,0,2.11-.27,3.84,3.84,0,0,0,1.7-.93,2.25,2.25,0,0,0,.68-1.7,1.68,1.68,0,0,0-.57-1.31,3.41,3.41,0,0,0-2.22-.52h-1.77a8,8,0,0,1-1.49-.12,2.31,2.31,0,0,1-1.18-.5,1.47,1.47,0,0,1-.45-1.18,2.35,2.35,0,0,1,.67-1.57,7.46,7.46,0,0,1,2.47-1.55l.29.22a10.61,10.61,0,0,0-1.42.88,1.27,1.27,0,0,0-.6,1c0,.51.39.77,1.15.77h3a5.5,5.5,0,0,1,1.86.29,3,3,0,0,1,1.38.91,2.39,2.39,0,0,1,.53,1.63A3.49,3.49,0,0,1,185,22a5,5,0,0,1-2.15,1.6A9,9,0,0,1,179.32,24.2Zm.12-9.62a5.61,5.61,0,0,1-2.13-.4,3.13,3.13,0,0,1-1.51-1.24,3.83,3.83,0,0,1-.56-2.16,3.87,3.87,0,0,1,.56-2.16,3.16,3.16,0,0,1,1.51-1.23,5.92,5.92,0,0,1,4.28,0,3.24,3.24,0,0,1,1.5,1.23,3.87,3.87,0,0,1,.55,2.16,3.83,3.83,0,0,1-.55,2.16,3.2,3.2,0,0,1-1.5,1.24A5.6,5.6,0,0,1,179.44,14.58Zm0-.44a1.66,1.66,0,0,0,1.43-.72,4.73,4.73,0,0,0,.52-2.64,4.75,4.75,0,0,0-.52-2.64,1.76,1.76,0,0,0-2.84,0,4.74,4.74,0,0,0-.53,2.64,4.71,4.71,0,0,0,.53,2.64A1.66,1.66,0,0,0,179.44,14.14ZM182.9,9l-.43-.16a3.41,3.41,0,0,1,1.15-1.44,2.74,2.74,0,0,1,1.7-.63,1.44,1.44,0,0,1,1,.35,1.32,1.32,0,0,1,.39,1,1.25,1.25,0,0,1-.4,1,1.31,1.31,0,0,1-.8.3,1.12,1.12,0,0,1-.68-.25,1.18,1.18,0,0,1-.36-.81A3,3,0,0,1,184.82,7l.31.07a4.42,4.42,0,0,0-1.44.8A4.51,4.51,0,0,0,182.9,9Z"/><path class="cls-1" d="M191.56,7.06v10.4a1.78,1.78,0,0,0,.42,1.37,2.24,2.24,0,0,0,1.41.35v.51l-1.24-.06c-.55,0-1.11,0-1.67,0s-1.09,0-1.65,0l-1.25.06v-.51a2.21,2.21,0,0,0,1.4-.35,1.78,1.78,0,0,0,.42-1.37V9.94A2.62,2.62,0,0,0,189,8.35a1.69,1.69,0,0,0-1.44-.52v-.5c.51,0,1,.07,1.49.07a11.32,11.32,0,0,0,1.33-.08A6.38,6.38,0,0,0,191.56,7.06ZM192.84.18a.88.88,0,0,1,.32.62,1.27,1.27,0,0,1-.32.86,6.91,6.91,0,0,1-.89.92c-.35.3-.77.66-1.24,1.09s-1,1-1.67,1.64l-.26-.21c.5-.79.89-1.46,1.19-2s.55-1.05.75-1.46A6.08,6.08,0,0,1,191.4.54a1.16,1.16,0,0,1,.75-.53A.91.91,0,0,1,192.84.18Z"/><path class="cls-1" d="M198,19.86a3.61,3.61,0,0,1-1.7-.38,2.52,2.52,0,0,1-1.1-1,3.27,3.27,0,0,1-.37-1.56,2.93,2.93,0,0,1,.49-1.73,3.71,3.71,0,0,1,1.27-1.08,10,10,0,0,1,1.61-.68l1.62-.53a4.86,4.86,0,0,0,1.27-.59,1,1,0,0,0,.49-.89V9.9a3.15,3.15,0,0,0-.3-1.54,1.51,1.51,0,0,0-.81-.71,3.29,3.29,0,0,0-1.12-.18,5.52,5.52,0,0,0-1.29.17,1.93,1.93,0,0,0-1.09.7,1.38,1.38,0,0,1,.79.48,1.44,1.44,0,0,1,.34,1,1.21,1.21,0,0,1-.39.95,1.4,1.4,0,0,1-1,.35,1.18,1.18,0,0,1-1-.45,1.59,1.59,0,0,1-.32-1,1.54,1.54,0,0,1,.31-1,3.46,3.46,0,0,1,.79-.72,5,5,0,0,1,1.43-.66,6.66,6.66,0,0,1,2-.28,5.54,5.54,0,0,1,1.68.23,3,3,0,0,1,1.15.66,2.67,2.67,0,0,1,.82,1.4,9.5,9.5,0,0,1,.19,2v6.68a1.57,1.57,0,0,0,.18.86.62.62,0,0,0,.56.26,1,1,0,0,0,.5-.12,2.46,2.46,0,0,0,.58-.38l.26.41a6.84,6.84,0,0,1-1,.63,2.48,2.48,0,0,1-1.22.26,2.45,2.45,0,0,1-1.15-.24,1.56,1.56,0,0,1-.68-.71,2.6,2.6,0,0,1-.23-1.19,4.45,4.45,0,0,1-1.55,1.61A4,4,0,0,1,198,19.86Zm.86-1a2.64,2.64,0,0,0,1.48-.46,4.17,4.17,0,0,0,1.24-1.37v-4.7a2.15,2.15,0,0,1-.84.68c-.37.19-.77.37-1.2.55a9.12,9.12,0,0,0-1.24.65,3.21,3.21,0,0,0-1,1,2.82,2.82,0,0,0-.39,1.56,2.22,2.22,0,0,0,.52,1.54A1.81,1.81,0,0,0,198.88,18.9Z"/><path class="cls-1" d="M221.61.9V18.44L221,19l-.64.54-.65.55-.41-.17a3.91,3.91,0,0,0,.14-.68c0-.23,0-.47,0-.71V3.78a2.75,2.75,0,0,0-.38-1.6,1.72,1.72,0,0,0-1.44-.52v-.5c.51.05,1,.07,1.49.07a11.45,11.45,0,0,0,1.33-.08A7.38,7.38,0,0,0,221.61.9ZM225.36,7a4,4,0,0,1,3.26,1.62,7.8,7.8,0,0,1,1.3,4.91,8,8,0,0,1-.74,3.61,5,5,0,0,1-2,2.17,5.19,5.19,0,0,1-2.67.72,4.3,4.3,0,0,1-2.31-.68,4.12,4.12,0,0,1-1.67-2l.48.27A3.88,3.88,0,0,0,222.55,19a3.77,3.77,0,0,0,1.82.47A2.58,2.58,0,0,0,226.78,18a9.6,9.6,0,0,0,.81-4.5,14.56,14.56,0,0,0-.31-3.24,4,4,0,0,0-1-1.93,2.31,2.31,0,0,0-1.66-.64,2.81,2.81,0,0,0-2,1,4.9,4.9,0,0,0-1.17,2.91l-.28-.33a5.17,5.17,0,0,1,1.42-3.17A3.87,3.87,0,0,1,225.36,7Z"/><path class="cls-1" d="M235.72,7.06v10.4a1.78,1.78,0,0,0,.42,1.37,2.24,2.24,0,0,0,1.41.35v.51l-1.24-.06c-.55,0-1.11,0-1.67,0s-1.09,0-1.65,0l-1.25.06v-.51a2.23,2.23,0,0,0,1.4-.35,1.78,1.78,0,0,0,.42-1.37V9.94a2.7,2.7,0,0,0-.38-1.59,1.69,1.69,0,0,0-1.44-.52v-.5c.51,0,1,.07,1.49.07a11.45,11.45,0,0,0,1.33-.08A6.38,6.38,0,0,0,235.72,7.06Zm-1.25-5.73a1.47,1.47,0,0,1,1.08.45A1.48,1.48,0,0,1,236,2.86a1.44,1.44,0,0,1-.46,1.08,1.44,1.44,0,0,1-1.08.46,1.48,1.48,0,0,1-1.08-.46,1.47,1.47,0,0,1-.45-1.08,1.54,1.54,0,0,1,1.53-1.53Z"/><path class="cls-1" d="M244.6,7a4.26,4.26,0,0,1,3.3,1.29,5.68,5.68,0,0,1,1.19,4h-8.47l0-.45h6.2a8,8,0,0,0-.2-2.18,3.68,3.68,0,0,0-.75-1.59,1.67,1.67,0,0,0-1.33-.6,2.46,2.46,0,0,0-2,1.1,6.53,6.53,0,0,0-1,3.51l.07.09c0,.24,0,.51-.07.79s0,.58,0,.87a6.71,6.71,0,0,0,.53,2.81,4.22,4.22,0,0,0,1.38,1.78,3,3,0,0,0,1.76.62,4.15,4.15,0,0,0,1.37-.23,3.25,3.25,0,0,0,1.2-.76,4.65,4.65,0,0,0,1-1.41l.48.19a4.93,4.93,0,0,1-.87,1.53,4.67,4.67,0,0,1-1.51,1.22,4.58,4.58,0,0,1-2.11.46,5.34,5.34,0,0,1-3-.79,5.14,5.14,0,0,1-1.9-2.19,7.55,7.55,0,0,1-.66-3.23,9,9,0,0,1,.67-3.64,5.38,5.38,0,0,1,1.9-2.35A5,5,0,0,1,244.6,7Z"/><path class="cls-1" d="M259,7a4.18,4.18,0,0,1,1.52.24,2.83,2.83,0,0,1,1,.67,2.69,2.69,0,0,1,.65,1.2,7.79,7.79,0,0,1,.19,2v6.41a1.78,1.78,0,0,0,.42,1.37,2.24,2.24,0,0,0,1.41.35v.51l-1.25-.06c-.56,0-1.11,0-1.63,0s-1.05,0-1.55,0l-1.14.06v-.51a1.74,1.74,0,0,0,1.22-.35,2,2,0,0,0,.36-1.37V10.52a7.35,7.35,0,0,0-.12-1.37,1.81,1.81,0,0,0-.54-1,1.88,1.88,0,0,0-1.28-.38,2.78,2.78,0,0,0-1.76.58,3.65,3.65,0,0,0-1.18,1.57,5.63,5.63,0,0,0-.42,2.22v5.33a2,2,0,0,0,.36,1.37,1.74,1.74,0,0,0,1.22.35v.51l-1.14-.06c-.5,0-1,0-1.55,0s-1.07,0-1.63,0l-1.24.06v-.51a2.23,2.23,0,0,0,1.4-.35,1.78,1.78,0,0,0,.42-1.37V9.94a2.62,2.62,0,0,0-.39-1.59,1.66,1.66,0,0,0-1.43-.52v-.5c.51,0,1,.07,1.48.07a11.19,11.19,0,0,0,1.33-.08,6.31,6.31,0,0,0,1.17-.26V9.9a4.12,4.12,0,0,1,1.74-2.27A4.58,4.58,0,0,1,259,7Z"/><path class="cls-1" d="M271.08,7a4.29,4.29,0,0,1,3.3,1.29,5.73,5.73,0,0,1,1.18,4h-8.47l0-.45h6.19a8,8,0,0,0-.19-2.18,3.81,3.81,0,0,0-.76-1.59,1.67,1.67,0,0,0-1.33-.6,2.46,2.46,0,0,0-2,1.1,6.62,6.62,0,0,0-1,3.51l.08.09c0,.24-.06.51-.08.79s0,.58,0,.87a6.71,6.71,0,0,0,.53,2.81,4.22,4.22,0,0,0,1.38,1.78,3,3,0,0,0,1.76.62,4.15,4.15,0,0,0,1.37-.23,3.25,3.25,0,0,0,1.2-.76,4.48,4.48,0,0,0,1-1.41l.48.19a4.93,4.93,0,0,1-.87,1.53,4.67,4.67,0,0,1-1.51,1.22,4.58,4.58,0,0,1-2.11.46,5.34,5.34,0,0,1-3-.79,5.14,5.14,0,0,1-1.9-2.19,7.55,7.55,0,0,1-.66-3.23,9.13,9.13,0,0,1,.67-3.64,5.38,5.38,0,0,1,1.9-2.35A5,5,0,0,1,271.08,7Z"/><path class="cls-1" d="M281.68,7a4,4,0,0,1,1.63.31,4.52,4.52,0,0,1,1,.58c.53.43.85.14,1-.86h.55c0,.45-.06,1-.07,1.59s0,1.45,0,2.49h-.55a7.57,7.57,0,0,0-.49-1.73,3.37,3.37,0,0,0-1-1.38,2.71,2.71,0,0,0-1.75-.54,2.11,2.11,0,0,0-1.41.47,1.7,1.7,0,0,0-.56,1.38,1.83,1.83,0,0,0,.43,1.23,4.72,4.72,0,0,0,1.13,1l1.51,1a19.23,19.23,0,0,1,1.66,1.18A5.44,5.44,0,0,1,285.85,15a3.23,3.23,0,0,1,.44,1.7,2.88,2.88,0,0,1-.58,1.85,3.48,3.48,0,0,1-1.5,1.13,5.12,5.12,0,0,1-2,.38,5.26,5.26,0,0,1-1-.08,5.44,5.44,0,0,1-.9-.25,5.21,5.21,0,0,1-.49-.29,5.6,5.6,0,0,1-.49-.36.3.3,0,0,0-.44,0,1.69,1.69,0,0,0-.28.81H278c0-.51.06-1.14.08-1.88s0-1.71,0-2.92h.55a13.48,13.48,0,0,0,.48,2.35,3.27,3.27,0,0,0,1,1.57,2.78,2.78,0,0,0,1.87.56,2.46,2.46,0,0,0,1-.21,2,2,0,0,0,.83-.72,2.43,2.43,0,0,0,.33-1.35,2.17,2.17,0,0,0-.76-1.72,16.29,16.29,0,0,0-1.95-1.42c-.57-.37-1.11-.73-1.62-1.1a5.15,5.15,0,0,1-1.22-1.25,3,3,0,0,1-.47-1.68,2.91,2.91,0,0,1,.49-1.76,2.86,2.86,0,0,1,1.31-1A4.62,4.62,0,0,1,281.68,7Z"/><path class="cls-1" d="M292,3.34v4h3.55v.48H292v9.29a2.32,2.32,0,0,0,.41,1.58,1.4,1.4,0,0,0,1.12.46,1.6,1.6,0,0,0,1.25-.59,5,5,0,0,0,.91-2l.48.12a5.41,5.41,0,0,1-.94,2.35A2.54,2.54,0,0,1,293,20a3.67,3.67,0,0,1-1.34-.2,3,3,0,0,1-.94-.59,3,3,0,0,1-.73-1.32,8.52,8.52,0,0,1-.2-2v-8h-2.31V7.35h2.31V3.68c.4,0,.78-.05,1.15-.1A3.93,3.93,0,0,0,292,3.34Z"/><path class="cls-1" d="M300,19.86a3.66,3.66,0,0,1-1.71-.38,2.49,2.49,0,0,1-1.09-1,3.16,3.16,0,0,1-.37-1.56,2.86,2.86,0,0,1,.49-1.73,3.77,3.77,0,0,1,1.26-1.08,9.71,9.71,0,0,1,1.62-.68l1.62-.53a4.94,4.94,0,0,0,1.26-.59,1,1,0,0,0,.49-.89V9.9a3.15,3.15,0,0,0-.3-1.54,1.49,1.49,0,0,0-.8-.71,3.35,3.35,0,0,0-1.13-.18,5.44,5.44,0,0,0-1.28.17,1.89,1.89,0,0,0-1.09.7,1.41,1.41,0,0,1,.79.48,1.43,1.43,0,0,1,.33,1,1.2,1.2,0,0,1-.38.95,1.42,1.42,0,0,1-1,.35,1.16,1.16,0,0,1-1-.45,1.72,1.72,0,0,1,0-2,3.75,3.75,0,0,1,.8-.72,5,5,0,0,1,1.42-.66,6.76,6.76,0,0,1,2-.28,5.45,5.45,0,0,1,1.68.23,3,3,0,0,1,1.16.66,2.72,2.72,0,0,1,.81,1.4,8.86,8.86,0,0,1,.19,2v6.68a1.57,1.57,0,0,0,.18.86.63.63,0,0,0,.57.26,1,1,0,0,0,.5-.12,3,3,0,0,0,.58-.38l.26.41a6.84,6.84,0,0,1-1,.63,2.48,2.48,0,0,1-1.22.26,2.42,2.42,0,0,1-1.15-.24,1.53,1.53,0,0,1-.69-.71,2.74,2.74,0,0,1-.23-1.19,4.43,4.43,0,0,1-1.54,1.61A4,4,0,0,1,300,19.86Zm.86-1a2.66,2.66,0,0,0,1.48-.46,4.15,4.15,0,0,0,1.23-1.37v-4.7a2.15,2.15,0,0,1-.84.68c-.36.19-.76.37-1.2.55a9,9,0,0,0-1.23.65,3.21,3.21,0,0,0-1,1,2.82,2.82,0,0,0-.39,1.56,2.18,2.18,0,0,0,.52,1.54A1.79,1.79,0,0,0,300.88,18.9Z"/><path class="cls-1" d="M316,7a2.34,2.34,0,0,1,1.14.27,2,2,0,0,1,.76.68,1.71,1.71,0,0,1-.09,2,1.21,1.21,0,0,1-1,.46,1.37,1.37,0,0,1-.89-.32,1.18,1.18,0,0,1-.38-.93,1.23,1.23,0,0,1,.25-.78,2.42,2.42,0,0,1,.56-.51.56.56,0,0,0-.5-.24,2.28,2.28,0,0,0-1.37.44,4.11,4.11,0,0,0-1.05,1.14,6.17,6.17,0,0,0-.67,1.48,5,5,0,0,0-.25,1.45v5.09a1.66,1.66,0,0,0,.69,1.57,3.76,3.76,0,0,0,1.86.39v.51l-1.56-.06c-.67,0-1.38,0-2.14,0-.54,0-1.08,0-1.62,0l-1.21.06v-.51a2.19,2.19,0,0,0,1.4-.35,1.74,1.74,0,0,0,.42-1.37V9.94A2.62,2.62,0,0,0,310,8.35a1.68,1.68,0,0,0-1.44-.52v-.5c.51,0,1,.07,1.49.07a11.32,11.32,0,0,0,1.33-.08,6.38,6.38,0,0,0,1.16-.26v3a6.67,6.67,0,0,1,.76-1.4,4.81,4.81,0,0,1,1.19-1.19A2.63,2.63,0,0,1,316,7Z"/><path class="cls-1" d="M338.75.92A7.35,7.35,0,0,1,340,1a7,7,0,0,1,1.11.25,3.65,3.65,0,0,1,.84.37,2.16,2.16,0,0,1,.6.56,1.38,1.38,0,0,1,.21.76,1.5,1.5,0,0,1-.45,1.1,1.48,1.48,0,0,1-1.08.46,1.44,1.44,0,0,1-1.08-.46A1.44,1.44,0,0,1,339.71,3a1.47,1.47,0,0,1,.22-.79,1.44,1.44,0,0,1,.57-.55,2.21,2.21,0,0,0-.79-.28,6.22,6.22,0,0,0-1-.08,4.07,4.07,0,0,0-2.09.5,3.71,3.71,0,0,0-1.32,1.35,5,5,0,0,0-.49,1.53,18.24,18.24,0,0,0-.15,2.69h3.86c.64,0,1.19,0,1.66,0s.88,0,1.24-.09a9.36,9.36,0,0,0,1.08-.18v10.4a1.78,1.78,0,0,0,.42,1.37,2.24,2.24,0,0,0,1.41.35v.51l-1.24-.06c-.55,0-1.11,0-1.67,0s-1.09,0-1.65,0l-1.25.06v-.51a2.21,2.21,0,0,0,1.4-.35,1.78,1.78,0,0,0,.42-1.37V9.94A2.62,2.62,0,0,0,340,8.35a1.69,1.69,0,0,0-1.44-.52H334.7v9.63a1.52,1.52,0,0,0,.55,1.38,2.84,2.84,0,0,0,1.51.34v.51l-1.36-.06c-.58,0-1.18,0-1.78,0s-1.16,0-1.7,0l-1.21.06v-.51a2.24,2.24,0,0,0,1.41-.35,1.78,1.78,0,0,0,.42-1.37V7.83h-1.92V7.35h1.92a9.11,9.11,0,0,1,.39-2.76,5.09,5.09,0,0,1,1.33-2.11,6,6,0,0,1,1.8-1.1A7,7,0,0,1,338.75.92Z"/><path class="cls-1" d="M349.41.87V17.46a1.78,1.78,0,0,0,.42,1.37,2.23,2.23,0,0,0,1.4.35v.51L350,19.63c-.56,0-1.11,0-1.67,0s-1.1,0-1.66,0l-1.25.06v-.51a2.24,2.24,0,0,0,1.41-.35,1.78,1.78,0,0,0,.42-1.37V3.75a2.62,2.62,0,0,0-.39-1.59,1.67,1.67,0,0,0-1.44-.52v-.5c.52,0,1,.07,1.49.07a9.37,9.37,0,0,0,1.33-.09A6.33,6.33,0,0,0,349.41.87Z"/><path class="cls-1" d="M358.1,7a5.75,5.75,0,0,1,2.76.67,4.86,4.86,0,0,1,1.95,2.12,8.22,8.22,0,0,1,.73,3.74,8.14,8.14,0,0,1-.73,3.73,4.81,4.81,0,0,1-1.95,2.1,6,6,0,0,1-5.51,0,4.74,4.74,0,0,1-2-2.1,8.14,8.14,0,0,1-.73-3.73,8.22,8.22,0,0,1,.73-3.74,4.79,4.79,0,0,1,2-2.12A5.74,5.74,0,0,1,358.1,7Zm0,.48a2.6,2.6,0,0,0-2.25,1.42,9.23,9.23,0,0,0-.87,4.63,9.19,9.19,0,0,0,.87,4.62,2.5,2.5,0,0,0,4.49,0,9.17,9.17,0,0,0,.88-4.62,9.21,9.21,0,0,0-.88-4.63A2.6,2.6,0,0,0,358.1,7.47Z"/><path class="cls-1" d="M369.66,7a4,4,0,0,1,1.63.31,4.52,4.52,0,0,1,1,.58c.53.43.85.14,1-.86h.55c0,.45-.06,1-.07,1.59s0,1.45,0,2.49h-.56a7.57,7.57,0,0,0-.49-1.73,3.37,3.37,0,0,0-1-1.38,2.71,2.71,0,0,0-1.75-.54,2.11,2.11,0,0,0-1.41.47,1.7,1.7,0,0,0-.56,1.38,1.83,1.83,0,0,0,.43,1.23,4.72,4.72,0,0,0,1.13,1l1.51,1a19.23,19.23,0,0,1,1.66,1.18A5.44,5.44,0,0,1,373.83,15a3.23,3.23,0,0,1,.44,1.7,2.94,2.94,0,0,1-.57,1.85,3.6,3.6,0,0,1-1.5,1.13,5.2,5.2,0,0,1-2,.38,5.26,5.26,0,0,1-1-.08,5.44,5.44,0,0,1-.9-.25,5.21,5.21,0,0,1-.49-.29,5.6,5.6,0,0,1-.49-.36.3.3,0,0,0-.44,0,1.69,1.69,0,0,0-.28.81H366c0-.51.06-1.14.08-1.88s0-1.71,0-2.92h.55a13.48,13.48,0,0,0,.48,2.35,3.27,3.27,0,0,0,1,1.57,2.78,2.78,0,0,0,1.87.56,2.46,2.46,0,0,0,1-.21,2,2,0,0,0,.83-.72,2.43,2.43,0,0,0,.33-1.35,2.17,2.17,0,0,0-.76-1.72,16.29,16.29,0,0,0-1.95-1.42c-.57-.37-1.11-.73-1.62-1.1a5.15,5.15,0,0,1-1.22-1.25,3,3,0,0,1-.47-1.68,2.91,2.91,0,0,1,.49-1.76,2.86,2.86,0,0,1,1.31-1A4.66,4.66,0,0,1,369.66,7Z"/><path class="cls-1" d="M382,7a5.69,5.69,0,0,1,2.76.67,4.82,4.82,0,0,1,2,2.12,8.22,8.22,0,0,1,.73,3.74,8.14,8.14,0,0,1-.73,3.73,4.77,4.77,0,0,1-2,2.1,6,6,0,0,1-5.5,0,4.74,4.74,0,0,1-2-2.1,8.14,8.14,0,0,1-.73-3.73,8.22,8.22,0,0,1,.73-3.74,4.79,4.79,0,0,1,2-2.12A5.73,5.73,0,0,1,382,7Zm0,.48a2.59,2.59,0,0,0-2.24,1.42,9.21,9.21,0,0,0-.88,4.63,9.17,9.17,0,0,0,.88,4.62,2.5,2.5,0,0,0,4.49,0,9.19,9.19,0,0,0,.87-4.62,9.23,9.23,0,0,0-.87-4.63A2.6,2.6,0,0,0,382,7.47Z"/><path class="cls-1" d="M395.17.92a3.59,3.59,0,0,1,1.19.18,3.19,3.19,0,0,1,.9.47,1.94,1.94,0,0,1,.55.67,1.81,1.81,0,0,1,.2.82,1.23,1.23,0,0,1-.36.91,1.25,1.25,0,0,1-.92.36,1.35,1.35,0,0,1-.92-.35,1.21,1.21,0,0,1-.4-1,1.21,1.21,0,0,1,.28-.81,1.27,1.27,0,0,1,.73-.41.67.67,0,0,0-.37-.37,1.67,1.67,0,0,0-.8-.16,1.79,1.79,0,0,0-.95.24,1.59,1.59,0,0,0-.61.65,3.39,3.39,0,0,0-.36,1.5c-.05.66-.08,1.68-.08,3.06v.62h2.57v.48h-2.57v9.39a1.66,1.66,0,0,0,.69,1.57,3.73,3.73,0,0,0,1.86.39v.51l-1.56-.06c-.67,0-1.39,0-2.14,0-.54,0-1.08,0-1.62,0l-1.21.06v-.51a2.21,2.21,0,0,0,1.4-.35,1.78,1.78,0,0,0,.42-1.37V7.83h-1.92V7.35h1.92A19.59,19.59,0,0,1,391.21,5a6.9,6.9,0,0,1,.39-1.65,3.89,3.89,0,0,1,.72-1.21,3.45,3.45,0,0,1,1.22-.88A4.16,4.16,0,0,1,395.17.92Z"/><path class="cls-1" d="M401.2,7.06v10.4a1.78,1.78,0,0,0,.42,1.37,2.23,2.23,0,0,0,1.4.35v.51l-1.23-.06c-.56,0-1.11,0-1.67,0s-1.1,0-1.66,0l-1.25.06v-.51a2.24,2.24,0,0,0,1.41-.35,1.78,1.78,0,0,0,.42-1.37V9.94a2.62,2.62,0,0,0-.39-1.59,1.67,1.67,0,0,0-1.44-.52v-.5c.52,0,1,.07,1.49.07A11.19,11.19,0,0,0,400,7.32,6.31,6.31,0,0,0,401.2,7.06ZM402.47.18a.88.88,0,0,1,.32.62,1.22,1.22,0,0,1-.32.86,6.91,6.91,0,0,1-.89.92c-.35.3-.76.66-1.23,1.09s-1,1-1.67,1.64l-.27-.21c.5-.79.9-1.46,1.19-2s.55-1.05.76-1.46A6.07,6.07,0,0,1,401,.54a1.16,1.16,0,0,1,.76-.53A.89.89,0,0,1,402.47.18Z"/><path class="cls-1" d="M407.65,19.86a3.64,3.64,0,0,1-1.7-.38,2.49,2.49,0,0,1-1.09-1,3.16,3.16,0,0,1-.37-1.56,2.86,2.86,0,0,1,.49-1.73,3.77,3.77,0,0,1,1.26-1.08,9.71,9.71,0,0,1,1.62-.68l1.62-.53a4.94,4.94,0,0,0,1.26-.59,1,1,0,0,0,.49-.89V9.9a3.15,3.15,0,0,0-.3-1.54,1.52,1.52,0,0,0-.8-.71A3.39,3.39,0,0,0,409,7.47a5.58,5.58,0,0,0-1.29.17,1.93,1.93,0,0,0-1.09.7,1.35,1.35,0,0,1,.79.48,1.39,1.39,0,0,1,.34,1,1.23,1.23,0,0,1-.38.95,1.44,1.44,0,0,1-1,.35,1.18,1.18,0,0,1-1-.45,1.65,1.65,0,0,1-.32-1,1.54,1.54,0,0,1,.31-1,3.69,3.69,0,0,1,.79-.72,5.15,5.15,0,0,1,1.43-.66,6.66,6.66,0,0,1,2-.28,5.45,5.45,0,0,1,1.68.23,3,3,0,0,1,1.15.66,2.67,2.67,0,0,1,.82,1.4,8.86,8.86,0,0,1,.19,2v6.68a1.57,1.57,0,0,0,.18.86.62.62,0,0,0,.56.26,1,1,0,0,0,.51-.12,2.66,2.66,0,0,0,.57-.38l.27.41a8.23,8.23,0,0,1-1,.63,2.53,2.53,0,0,1-1.23.26,2.48,2.48,0,0,1-1.15-.24,1.56,1.56,0,0,1-.68-.71,2.74,2.74,0,0,1-.23-1.19,4.45,4.45,0,0,1-1.55,1.61A3.94,3.94,0,0,1,407.65,19.86Zm.87-1a2.61,2.61,0,0,0,1.47-.46,4.17,4.17,0,0,0,1.24-1.37v-4.7a2.15,2.15,0,0,1-.84.68c-.37.19-.77.37-1.2.55a9.75,9.75,0,0,0-1.24.65,3.32,3.32,0,0,0-1,1,2.91,2.91,0,0,0-.38,1.56,2.22,2.22,0,0,0,.51,1.54A1.83,1.83,0,0,0,408.52,18.9Z"/><path class="cls-1" d="M438.21,7.33v.48a1.39,1.39,0,0,0-.84.41,3.23,3.23,0,0,0-.72,1.27l-3.94,10.32h-.41L427.89,9.18A2.26,2.26,0,0,0,427.13,8a1.36,1.36,0,0,0-.64-.21v-.5l1,.06c.34,0,.72,0,1.12,0s1,0,1.57,0,1.07,0,1.55-.07v.5a5.7,5.7,0,0,0-1.07.09.7.7,0,0,0-.6.46,2.21,2.21,0,0,0,.23,1.32l3,7.42-.15.12,2.74-7.18a2.65,2.65,0,0,0,.25-1.26.9.9,0,0,0-.48-.7,3,3,0,0,0-1.28-.29V7.33l.74,0,.61,0h.66l1,0Z"/><path class="cls-1" d="M443,7.06v10.4a1.78,1.78,0,0,0,.42,1.37,2.23,2.23,0,0,0,1.4.35v.51l-1.23-.06c-.56,0-1.11,0-1.67,0s-1.1,0-1.66,0l-1.25.06v-.51a2.24,2.24,0,0,0,1.41-.35,1.78,1.78,0,0,0,.42-1.37V9.94a2.62,2.62,0,0,0-.39-1.59A1.67,1.67,0,0,0,439,7.83v-.5c.52,0,1,.07,1.49.07a11.19,11.19,0,0,0,1.33-.08A6.31,6.31,0,0,0,443,7.06Zm-1.25-5.73a1.47,1.47,0,0,1,1.08.45,1.52,1.52,0,0,1,.46,1.08,1.48,1.48,0,0,1-.46,1.08,1.5,1.5,0,0,1-2.16,0,1.48,1.48,0,0,1-.46-1.08,1.52,1.52,0,0,1,.46-1.08A1.47,1.47,0,0,1,441.71,1.33Z"/><path class="cls-1" d="M450.3,7a4,4,0,0,1,1.63.31,4.52,4.52,0,0,1,1,.58c.53.43.85.14,1-.86h.55c0,.45-.06,1-.07,1.59s0,1.45,0,2.49h-.55a7.57,7.57,0,0,0-.49-1.73,3.37,3.37,0,0,0-1-1.38,2.71,2.71,0,0,0-1.75-.54,2.11,2.11,0,0,0-1.41.47,1.7,1.7,0,0,0-.56,1.38,1.83,1.83,0,0,0,.43,1.23,4.72,4.72,0,0,0,1.13,1l1.51,1a19.23,19.23,0,0,1,1.66,1.18A5.44,5.44,0,0,1,454.47,15a3.23,3.23,0,0,1,.44,1.7,2.88,2.88,0,0,1-.58,1.85,3.48,3.48,0,0,1-1.5,1.13,5.12,5.12,0,0,1-2,.38,5.26,5.26,0,0,1-1-.08,5.44,5.44,0,0,1-.9-.25,5.21,5.21,0,0,1-.49-.29,5.6,5.6,0,0,1-.49-.36.3.3,0,0,0-.44,0,1.69,1.69,0,0,0-.28.81h-.56c0-.51.06-1.14.08-1.88s0-1.71,0-2.92h.55a13.48,13.48,0,0,0,.48,2.35,3.27,3.27,0,0,0,1,1.57,2.78,2.78,0,0,0,1.87.56,2.46,2.46,0,0,0,1-.21,2,2,0,0,0,.83-.72,2.43,2.43,0,0,0,.33-1.35,2.17,2.17,0,0,0-.76-1.72,16.29,16.29,0,0,0-1.95-1.42c-.57-.37-1.11-.73-1.62-1.1a5.15,5.15,0,0,1-1.22-1.25,3,3,0,0,1-.47-1.68,2.91,2.91,0,0,1,.49-1.76,2.86,2.86,0,0,1,1.31-1A4.62,4.62,0,0,1,450.3,7Z"/><path class="cls-1" d="M467.63,7.06v10a2.55,2.55,0,0,0,.4,1.59,1.67,1.67,0,0,0,1.42.52v.5a14.66,14.66,0,0,0-1.48-.07,11.54,11.54,0,0,0-1.34.07,5.05,5.05,0,0,0-1.16.27V17.14a4.2,4.2,0,0,1-1.69,2.22,4.31,4.31,0,0,1-2.25.66,4.06,4.06,0,0,1-1.46-.24,2.67,2.67,0,0,1-1-.67,2.56,2.56,0,0,1-.63-1.25,9.18,9.18,0,0,1-.16-1.89v-6a2.62,2.62,0,0,0-.39-1.59,1.67,1.67,0,0,0-1.44-.52v-.5c.51,0,1,.07,1.49.07a11.32,11.32,0,0,0,1.33-.08,6.5,6.5,0,0,0,1.17-.26V16.5a9.5,9.5,0,0,0,.09,1.36,1.81,1.81,0,0,0,.48,1,1.7,1.7,0,0,0,1.25.39,2.67,2.67,0,0,0,1.67-.58,3.79,3.79,0,0,0,1.15-1.56,5.55,5.55,0,0,0,.42-2.21v-5a2.7,2.7,0,0,0-.38-1.59,1.69,1.69,0,0,0-1.44-.52v-.5c.51,0,1,.07,1.48.07a11.49,11.49,0,0,0,1.34-.08A6.38,6.38,0,0,0,467.63,7.06Z"/><path class="cls-1" d="M474.08,19.86a3.64,3.64,0,0,1-1.7-.38,2.49,2.49,0,0,1-1.09-1,3.16,3.16,0,0,1-.37-1.56,2.86,2.86,0,0,1,.49-1.73,3.77,3.77,0,0,1,1.26-1.08,9.71,9.71,0,0,1,1.62-.68l1.62-.53a4.94,4.94,0,0,0,1.26-.59,1,1,0,0,0,.49-.89V9.9a3.15,3.15,0,0,0-.3-1.54,1.52,1.52,0,0,0-.8-.71,3.35,3.35,0,0,0-1.13-.18,5.44,5.44,0,0,0-1.28.17,2,2,0,0,0-1.1.7,1.4,1.4,0,0,1,.8.48,1.43,1.43,0,0,1,.33,1,1.23,1.23,0,0,1-.38.95,1.44,1.44,0,0,1-1,.35,1.18,1.18,0,0,1-1-.45,1.65,1.65,0,0,1-.32-1,1.54,1.54,0,0,1,.31-1,3.69,3.69,0,0,1,.79-.72A5.15,5.15,0,0,1,474,7.27,6.71,6.71,0,0,1,476,7a5.45,5.45,0,0,1,1.68.23,2.88,2.88,0,0,1,1.15.66,2.67,2.67,0,0,1,.82,1.4,8.86,8.86,0,0,1,.19,2v6.68a1.57,1.57,0,0,0,.18.86.63.63,0,0,0,.57.26,1,1,0,0,0,.5-.12,3,3,0,0,0,.58-.38l.26.41a8.23,8.23,0,0,1-1,.63,3,3,0,0,1-2.38,0,1.56,1.56,0,0,1-.68-.71,2.74,2.74,0,0,1-.23-1.19,4.45,4.45,0,0,1-1.55,1.61A3.94,3.94,0,0,1,474.08,19.86Zm.87-1a2.66,2.66,0,0,0,1.48-.46,4.27,4.27,0,0,0,1.23-1.37v-4.7a2.15,2.15,0,0,1-.84.68c-.37.19-.77.37-1.2.55a9,9,0,0,0-1.23.65,3.24,3.24,0,0,0-1,1,2.91,2.91,0,0,0-.38,1.56,2.18,2.18,0,0,0,.52,1.54A1.79,1.79,0,0,0,475,18.9Z"/><path class="cls-1" d="M486.44.87V17.46a1.78,1.78,0,0,0,.42,1.37,2.24,2.24,0,0,0,1.41.35v.51L487,19.63c-.55,0-1.11,0-1.67,0s-1.09,0-1.65,0l-1.25.06v-.51a2.21,2.21,0,0,0,1.4-.35,1.78,1.78,0,0,0,.42-1.37V3.75a2.62,2.62,0,0,0-.38-1.59,1.69,1.69,0,0,0-1.44-.52v-.5c.51,0,1,.07,1.49.07a9.48,9.48,0,0,0,1.33-.09A6.4,6.4,0,0,0,486.44.87Z"/><path class="cls-1" d="M505.43,7.06v10.4a1.78,1.78,0,0,0,.42,1.37,2.23,2.23,0,0,0,1.4.35v.51L506,19.63c-.56,0-1.11,0-1.67,0s-1.1,0-1.66,0l-1.25.06v-.51a2.24,2.24,0,0,0,1.41-.35,1.78,1.78,0,0,0,.42-1.37V9.94a2.62,2.62,0,0,0-.39-1.59,1.67,1.67,0,0,0-1.44-.52v-.5c.52,0,1,.07,1.49.07a11.19,11.19,0,0,0,1.33-.08A6.31,6.31,0,0,0,505.43,7.06Zm-1.25-5.73a1.47,1.47,0,0,1,1.08.45,1.52,1.52,0,0,1,.46,1.08,1.48,1.48,0,0,1-.46,1.08,1.5,1.5,0,0,1-2.16,0,1.48,1.48,0,0,1-.46-1.08,1.52,1.52,0,0,1,.46-1.08A1.47,1.47,0,0,1,504.18,1.33Z"/><path class="cls-1" d="M516.54,7a4.14,4.14,0,0,1,1.52.24,2.83,2.83,0,0,1,1,.67,2.69,2.69,0,0,1,.65,1.2,7.79,7.79,0,0,1,.19,2v6.41a1.78,1.78,0,0,0,.42,1.37,2.24,2.24,0,0,0,1.41.35v.51l-1.25-.06c-.56,0-1.1,0-1.63,0s-1,0-1.55,0l-1.14.06v-.51a1.73,1.73,0,0,0,1.22-.35,2,2,0,0,0,.36-1.37V10.52a7.35,7.35,0,0,0-.12-1.37,1.81,1.81,0,0,0-.54-1,1.86,1.86,0,0,0-1.28-.38,2.78,2.78,0,0,0-1.76.58,3.65,3.65,0,0,0-1.18,1.57,5.63,5.63,0,0,0-.42,2.22v5.33a2,2,0,0,0,.36,1.37,1.74,1.74,0,0,0,1.22.35v.51l-1.14-.06c-.5,0-1,0-1.54,0s-1.08,0-1.64,0l-1.24.06v-.51a2.23,2.23,0,0,0,1.4-.35,1.78,1.78,0,0,0,.42-1.37V9.94a2.7,2.7,0,0,0-.38-1.59,1.69,1.69,0,0,0-1.44-.52v-.5c.51,0,1,.07,1.48.07a11.49,11.49,0,0,0,1.34-.08,6.38,6.38,0,0,0,1.16-.26V9.9a4.22,4.22,0,0,1,1.74-2.27A4.58,4.58,0,0,1,516.54,7Z"/><path class="cls-1" d="M527.1,7a4,4,0,0,1,1.63.31,4.52,4.52,0,0,1,1,.58c.52.43.84.14,1-.86h.55c0,.45-.06,1-.07,1.59s0,1.45,0,2.49h-.55a8.11,8.11,0,0,0-.49-1.73,3.37,3.37,0,0,0-1-1.38,2.71,2.71,0,0,0-1.75-.54,2.11,2.11,0,0,0-1.41.47,1.7,1.7,0,0,0-.56,1.38,1.83,1.83,0,0,0,.43,1.23,4.54,4.54,0,0,0,1.13,1l1.51,1a19.23,19.23,0,0,1,1.66,1.18A5.2,5.2,0,0,1,531.26,15a3.15,3.15,0,0,1,.45,1.7,2.88,2.88,0,0,1-.58,1.85,3.48,3.48,0,0,1-1.5,1.13,5.14,5.14,0,0,1-2,.38,5.23,5.23,0,0,1-1-.08,5.44,5.44,0,0,1-.9-.25,4.19,4.19,0,0,1-.49-.29,5.74,5.74,0,0,1-.5-.36.29.29,0,0,0-.43,0,1.68,1.68,0,0,0-.29.81h-.55c0-.51.06-1.14.07-1.88s0-1.71,0-2.92h.55a13.48,13.48,0,0,0,.48,2.35,3.33,3.33,0,0,0,1,1.57,2.83,2.83,0,0,0,1.88.56,2.46,2.46,0,0,0,1-.21,2,2,0,0,0,.83-.72,2.43,2.43,0,0,0,.33-1.35,2.15,2.15,0,0,0-.77-1.72,16.1,16.1,0,0,0-1.94-1.42c-.58-.37-1.12-.73-1.62-1.1A5.15,5.15,0,0,1,524,11.77a2.91,2.91,0,0,1-.47-1.68A2.91,2.91,0,0,1,524,8.33a2.81,2.81,0,0,1,1.31-1A4.62,4.62,0,0,1,527.1,7Z"/><path class="cls-1" d="M537.35,7.06V21.8a1.44,1.44,0,0,0,.61,1.38,3.46,3.46,0,0,0,1.69.35V24L538.19,24c-.63,0-1.29,0-2,0-.5,0-1,0-1.48,0L533.6,24v-.5a1.94,1.94,0,0,0,1.23-.31,1.53,1.53,0,0,0,.36-1.18V9.94a2.62,2.62,0,0,0-.39-1.59,1.67,1.67,0,0,0-1.44-.52v-.5c.52,0,1,.07,1.49.07a11.19,11.19,0,0,0,1.33-.08A6.31,6.31,0,0,0,537.35,7.06ZM541.19,7a3.93,3.93,0,0,1,2.28.69,4.55,4.55,0,0,1,1.59,2,7.88,7.88,0,0,1,.59,3.26,10.49,10.49,0,0,1-.31,2.56,7.51,7.51,0,0,1-1,2.28,5,5,0,0,1-1.71,1.63,4.83,4.83,0,0,1-2.5.61,3.56,3.56,0,0,1-2-.52,2.77,2.77,0,0,1-1.12-1.28l.24-.33a3.12,3.12,0,0,0,1,1.13,3,3,0,0,0,3.68-.39,4.77,4.77,0,0,0,1-2.24,14.92,14.92,0,0,0,.3-3.11,12.91,12.91,0,0,0-.31-3.14,3.84,3.84,0,0,0-.93-1.83,2.14,2.14,0,0,0-1.54-.6,3,3,0,0,0-2.14,1,5.06,5.06,0,0,0-1.22,2.94l-.29-.33a5.14,5.14,0,0,1,1.45-3.17A4,4,0,0,1,541.19,7Z"/><path class="cls-1" d="M551.46,7.06v10.4a1.78,1.78,0,0,0,.42,1.37,2.23,2.23,0,0,0,1.4.35v.51l-1.23-.06c-.55,0-1.11,0-1.67,0s-1.1,0-1.66,0l-1.24.06v-.51a2.23,2.23,0,0,0,1.4-.35,1.78,1.78,0,0,0,.42-1.37V9.94a2.7,2.7,0,0,0-.38-1.59,1.69,1.69,0,0,0-1.44-.52v-.5c.51,0,1,.07,1.48.07a11.49,11.49,0,0,0,1.34-.08A6.38,6.38,0,0,0,551.46,7.06Zm-1.25-5.73a1.47,1.47,0,0,1,1.08.45,1.48,1.48,0,0,1,.46,1.08,1.44,1.44,0,0,1-.46,1.08,1.44,1.44,0,0,1-1.08.46,1.48,1.48,0,0,1-1.08-.46,1.47,1.47,0,0,1-.45-1.08,1.54,1.54,0,0,1,1.53-1.53Z"/><path class="cls-1" d="M562,7a2.34,2.34,0,0,1,1.14.27,2,2,0,0,1,.77.68,1.73,1.73,0,0,1,.28,1,1.59,1.59,0,0,1-.38,1,1.19,1.19,0,0,1-1,.46,1.37,1.37,0,0,1-.89-.32,1.14,1.14,0,0,1-.38-.93,1.23,1.23,0,0,1,.25-.78,2.24,2.24,0,0,1,.56-.51.57.57,0,0,0-.5-.24,2.28,2.28,0,0,0-1.37.44A4,4,0,0,0,559.4,9.2a6.59,6.59,0,0,0-.67,1.48,4.93,4.93,0,0,0-.24,1.45v5.09a1.66,1.66,0,0,0,.69,1.57,3.73,3.73,0,0,0,1.86.39v.51l-1.56-.06c-.68,0-1.39,0-2.14,0-.54,0-1.08,0-1.62,0l-1.21.06v-.51a2.23,2.23,0,0,0,1.4-.35,1.78,1.78,0,0,0,.42-1.37V9.94A2.7,2.7,0,0,0,556,8.35a1.69,1.69,0,0,0-1.44-.52v-.5c.51,0,1,.07,1.49.07a11.45,11.45,0,0,0,1.33-.08,6.38,6.38,0,0,0,1.16-.26v3a6.67,6.67,0,0,1,.76-1.4,4.64,4.64,0,0,1,1.19-1.19A2.62,2.62,0,0,1,562,7Z"/><path class="cls-1" d="M568.6,19.86a3.66,3.66,0,0,1-1.71-.38,2.49,2.49,0,0,1-1.09-1,3.16,3.16,0,0,1-.37-1.56,2.86,2.86,0,0,1,.49-1.73,3.77,3.77,0,0,1,1.26-1.08,9.71,9.71,0,0,1,1.62-.68l1.62-.53a4.94,4.94,0,0,0,1.26-.59,1,1,0,0,0,.49-.89V9.9a3.15,3.15,0,0,0-.3-1.54,1.52,1.52,0,0,0-.8-.71,3.35,3.35,0,0,0-1.13-.18,5.44,5.44,0,0,0-1.28.17,2,2,0,0,0-1.1.7,1.4,1.4,0,0,1,.8.48,1.43,1.43,0,0,1,.33,1,1.23,1.23,0,0,1-.38.95,1.44,1.44,0,0,1-1,.35,1.18,1.18,0,0,1-1-.45,1.65,1.65,0,0,1-.32-1,1.54,1.54,0,0,1,.31-1,3.69,3.69,0,0,1,.79-.72,5.15,5.15,0,0,1,1.43-.66,6.76,6.76,0,0,1,2-.28,5.45,5.45,0,0,1,1.68.23,2.88,2.88,0,0,1,1.15.66,2.67,2.67,0,0,1,.82,1.4,8.86,8.86,0,0,1,.19,2v6.68a1.57,1.57,0,0,0,.18.86.63.63,0,0,0,.57.26,1,1,0,0,0,.5-.12,3,3,0,0,0,.58-.38l.26.41a8.23,8.23,0,0,1-1,.63,3,3,0,0,1-2.38,0,1.56,1.56,0,0,1-.68-.71,2.74,2.74,0,0,1-.23-1.19,4.45,4.45,0,0,1-1.55,1.61A3.93,3.93,0,0,1,568.6,19.86Zm.86-1a2.66,2.66,0,0,0,1.48-.46,4.27,4.27,0,0,0,1.23-1.37v-4.7a2.15,2.15,0,0,1-.84.68c-.37.19-.77.37-1.2.55a9,9,0,0,0-1.23.65,3.24,3.24,0,0,0-1,1,2.91,2.91,0,0,0-.38,1.56,2.18,2.18,0,0,0,.52,1.54A1.79,1.79,0,0,0,569.46,18.9Z"/><path class="cls-1" d="M583.14,7a6.15,6.15,0,0,1,1.49.19,4.46,4.46,0,0,1,1.29.58,2.66,2.66,0,0,1,.84.83,1.83,1.83,0,0,1,.29,1,1.31,1.31,0,0,1-.36,1,1.22,1.22,0,0,1-.91.35,1.42,1.42,0,0,1-.92-.31,1.05,1.05,0,0,1-.4-.89,1.31,1.31,0,0,1,.3-.89,1.43,1.43,0,0,1,.71-.43,1.82,1.82,0,0,0-.85-.72,3.09,3.09,0,0,0-1.31-.29,2.78,2.78,0,0,0-1.2.29,3.14,3.14,0,0,0-1.11,1,5.39,5.39,0,0,0-.81,1.8,10.89,10.89,0,0,0-.31,2.84,9.57,9.57,0,0,0,.48,3.36,3.68,3.68,0,0,0,1.26,1.79,2.94,2.94,0,0,0,1.71.54,3.65,3.65,0,0,0,2.5-1,4.44,4.44,0,0,0,1-1.45l.46.17a5.83,5.83,0,0,1-.79,1.55A4.46,4.46,0,0,1,585,19.52a4.35,4.35,0,0,1-2.19.5,4.9,4.9,0,0,1-2.69-.76,5.4,5.4,0,0,1-1.9-2.2,7.45,7.45,0,0,1-.71-3.4,7.89,7.89,0,0,1,.71-3.46,5.68,5.68,0,0,1,2-2.36A5.12,5.12,0,0,1,583.14,7Z"/><path class="cls-1" d="M592.79,7.06v10.4a1.78,1.78,0,0,0,.42,1.37,2.23,2.23,0,0,0,1.4.35v.51l-1.23-.06c-.56,0-1.11,0-1.67,0s-1.1,0-1.66,0l-1.25.06v-.51a2.24,2.24,0,0,0,1.41-.35,1.78,1.78,0,0,0,.42-1.37V9.94a2.62,2.62,0,0,0-.39-1.59,1.67,1.67,0,0,0-1.44-.52v-.5c.52,0,1,.07,1.49.07a11.19,11.19,0,0,0,1.33-.08A6.31,6.31,0,0,0,592.79,7.06Zm-1.25-5.73a1.47,1.47,0,0,1,1.08.45,1.52,1.52,0,0,1,.46,1.08,1.48,1.48,0,0,1-.46,1.08,1.5,1.5,0,0,1-2.16,0A1.48,1.48,0,0,1,590,2.86a1.52,1.52,0,0,1,.46-1.08A1.47,1.47,0,0,1,591.54,1.33Z"/><path class="cls-1" d="M601.72,7a5.75,5.75,0,0,1,2.76.67,4.86,4.86,0,0,1,1.95,2.12,8.21,8.21,0,0,1,.74,3.74,8.14,8.14,0,0,1-.74,3.73,4.81,4.81,0,0,1-1.95,2.1,6,6,0,0,1-5.51,0,4.74,4.74,0,0,1-2-2.1,8.14,8.14,0,0,1-.73-3.73A8.22,8.22,0,0,1,597,9.78a4.79,4.79,0,0,1,2-2.12A5.74,5.74,0,0,1,601.72,7Zm0,.48a2.6,2.6,0,0,0-2.25,1.42,9.23,9.23,0,0,0-.87,4.63,9.19,9.19,0,0,0,.87,4.62,2.5,2.5,0,0,0,4.49,0,9.17,9.17,0,0,0,.88-4.62A9.21,9.21,0,0,0,604,8.89,2.59,2.59,0,0,0,601.72,7.47ZM604.36.18a.88.88,0,0,1,.32.62,1.22,1.22,0,0,1-.32.86,6.91,6.91,0,0,1-.89.92c-.35.3-.77.66-1.24,1.09s-1,1-1.67,1.64l-.26-.21c.5-.79.89-1.46,1.19-2s.55-1.05.75-1.46a6.08,6.08,0,0,1,.68-1.08,1.16,1.16,0,0,1,.75-.53A.9.9,0,0,1,604.36.18Z"/><path class="cls-1" d="M617.05,7a4.24,4.24,0,0,1,1.53.24,3,3,0,0,1,1,.67,2.67,2.67,0,0,1,.64,1.2,7.72,7.72,0,0,1,.2,2v6.41a1.78,1.78,0,0,0,.42,1.37,2.21,2.21,0,0,0,1.4.35v.51L621,19.63c-.56,0-1.1,0-1.63,0s-1,0-1.55,0l-1.14.06v-.51a1.75,1.75,0,0,0,1.23-.35,2,2,0,0,0,.36-1.37V10.52a7.35,7.35,0,0,0-.12-1.37,1.81,1.81,0,0,0-.54-1,1.89,1.89,0,0,0-1.29-.38,2.78,2.78,0,0,0-1.76.58,3.65,3.65,0,0,0-1.18,1.57,5.63,5.63,0,0,0-.42,2.22v5.33a2,2,0,0,0,.36,1.37,1.75,1.75,0,0,0,1.23.35v.51l-1.14-.06c-.51,0-1,0-1.55,0s-1.07,0-1.63,0l-1.25.06v-.51a2.23,2.23,0,0,0,1.4-.35,1.78,1.78,0,0,0,.42-1.37V9.94a2.7,2.7,0,0,0-.38-1.59A1.69,1.69,0,0,0,609,7.83v-.5c.51,0,1,.07,1.49.07a11.45,11.45,0,0,0,1.33-.08A6.38,6.38,0,0,0,613,7.06V9.9a4.22,4.22,0,0,1,1.74-2.27A4.64,4.64,0,0,1,617.05,7Z"/></g></g></svg>