<svg xmlns="http://www.w3.org/2000/svg" viewBox="0 0 40.97 40.97"><defs><style>.cls-1{fill-rule:evenodd;}.cls-2{fill:#fff;}</style></defs><title>Recurso 15</title><g id="Capa_2" data-name="Capa 2"><g id="Capa_1-2" data-name="Capa 1"><path class="cls-1" d="M20.48,0A20.49,20.49,0,1,1,0,20.48,20.48,20.48,0,0,1,20.48,0"/><path class="cls-2" d="M18.82,18.53h9a2.31,2.31,0,0,1,1.28.32,2,2,0,0,1,.86,2,1.92,1.92,0,0,1-1.55,1.52,8,8,0,0,1-1.09.05H18.84l.13.16,2.6,2.61a2,2,0,0,1,.58,2.11,2,2,0,0,1-1.62,1.43,2,2,0,0,1-1.81-.59L13.66,23.1,11.4,20.85c-.26-.27-.26-.45,0-.72q2.23-2.25,4.49-4.49c1-1,1.89-1.9,2.85-2.84a2,2,0,1,1,2.87,2.91c-.88.87-1.75,1.75-2.62,2.63Z"/></g></g></svg>