<svg xmlns="http://www.w3.org/2000/svg" viewBox="0 0 40 40"><defs><style>.cls-1{fill:#fff;}</style></defs><title>Recurso 17</title><g id="Capa_2" data-name="Capa 2"><g id="Capa_1-2" data-name="Capa 1"><path d="M40,19.14v1.72c0,.18-.06.35-.08.53-.13.89-.19,1.79-.37,2.66a19.7,19.7,0,0,1-7.42,11.79,19.39,19.39,0,0,1-10,4L20.55,40h-1.1l-.69-.1c-.93-.12-1.88-.18-2.8-.38A19.64,19.64,0,0,1,3.6,31.33,19.19,19.19,0,0,1,.17,22.17C.12,21.63.06,21.09,0,20.55V19.38c0-.2.07-.38.09-.58.09-.78.13-1.58.27-2.35A19.54,19.54,0,0,1,5.85,5.94,19.59,19.59,0,0,1,17.17.24c.66-.1,1.31-.16,2-.24h1.72l.57.08c.59.07,1.17.1,1.75.2A19.72,19.72,0,0,1,35.24,7.11a19.42,19.42,0,0,1,4.52,10C39.85,17.8,39.92,18.47,40,19.14Z"/><path class="cls-1" d="M20,29H14.39A1.34,1.34,0,0,1,13,27.64V22.4a1.36,1.36,0,0,1,1.33-1.32H25.5c.13,0,.25,0,.38,0A1.23,1.23,0,0,1,27,22.33c0,.57,0,1.14,0,1.71,0,1.24,0,2.48,0,3.72A1.29,1.29,0,0,1,25.7,29Zm.15-1.3h1c.2,0,.29-.12.22-.3-.21-.65-.43-1.3-.65-1.95-.09-.27,0-.36.18-.52a2.85,2.85,0,0,0,.38-.31,1.42,1.42,0,0,0,0-1.78,1.44,1.44,0,0,0-1.79-.38A1.42,1.42,0,0,0,19.38,25c.28.2.31.33.2.65L19,27.36c-.09.26,0,.36.27.36Z"/><path class="cls-1" d="M26.41,20.48h-2v-.2c0-.94,0-1.89,0-2.83a4.32,4.32,0,0,0-8.53-.92,5.13,5.13,0,0,0-.11,1c0,.93,0,1.86,0,2.79v.2h-2s0-.08,0-.12c0-1.09,0-2.18,0-3.27A5.67,5.67,0,0,1,15,13.67a6.09,6.09,0,0,1,3.1-2.25,6.44,6.44,0,0,1,6.87,2,6.34,6.34,0,0,1,1.48,4.1v3Z"/></g></g></svg>