<svg xmlns="http://www.w3.org/2000/svg" viewBox="0 0 40.97 40.97"><defs><style>.cls-1{fill-rule:evenodd;}.cls-2{fill:#fff;}</style></defs><title>Recurso 18</title><g id="Capa_2" data-name="Capa 2"><g id="Capa_1-2" data-name="Capa 1"><path class="cls-1" d="M20.48,0A20.49,20.49,0,1,1,0,20.48,20.48,20.48,0,0,1,20.48,0"/><path class="cls-2" d="M23,19.94c-1-1-2-2-3-3C19.3,16.28,18.66,15.64,18,15a1.38,1.38,0,1,0-1.93,2l1.76,1.76.12.13H12a1.52,1.52,0,0,0-.86.22,1.31,1.31,0,0,0-.58,1.36,1.28,1.28,0,0,0,1,1,4.46,4.46,0,0,0,.73,0H18l-.09.11-1.75,1.75a1.36,1.36,0,0,0-.39,1.42,1.38,1.38,0,0,0,2.31.56l3.4-3.4L23,20.42C23.13,20.24,23.13,20.12,23,19.94Z"/><path class="cls-2" d="M15.13,32l-.36-.09a2.63,2.63,0,0,1-2-2.49c0-1.44,0-2.88,0-4.32,0,0,0-.08,0-.15h1.74v4.24a.93.93,0,0,0,1,1.06H27.68a.92.92,0,0,0,1-1V11.76a.91.91,0,0,0-1-1H15.59a.92.92,0,0,0-1,1V16H12.8V11.74A2.64,2.64,0,0,1,15.55,9H27.66a2.66,2.66,0,0,1,2.82,2.82V29.14a2.75,2.75,0,0,1-.9,2.17,2.63,2.63,0,0,1-1.31.63l-.15,0Z"/></g></g></svg>