<svg xmlns="http://www.w3.org/2000/svg" viewBox="0 0 40.97 40.97"><defs><style>.cls-1{fill-rule:evenodd;}.cls-2{fill:#fff;}</style></defs><title>Recurso 8</title><g id="Capa_2" data-name="Capa 2"><g id="Capa_1-2" data-name="Capa 1"><path class="cls-1" d="M20.48,0A20.49,20.49,0,1,1,0,20.48,20.48,20.48,0,0,1,20.48,0"/><path d="M15,8.69h5.83a2.26,2.26,0,0,1,0,.26V13c0,.37,0,.42-.42.42H15.39c-.24,0-.4-.06-.4-.33,0-1.43,0-2.85,0-4.28A.74.74,0,0,1,15,8.69Z"/><path class="cls-2" d="M15.39,21.21V12.15c0-.72.21-.93.93-.93H30.17c.7,0,.93.21.93.9v6.73c0,.1,0,.19,0,.36l-1.14-1.32c-.69-.8-1.38-1.61-2.06-2.42a1.66,1.66,0,0,0-2.79,0C24.06,16.71,23,18,22,19.18l-.22.26c-.34-.34-.65-.68-1-1a1.64,1.64,0,0,0-2.54,0l-2.79,2.81Zm1.37-6.75a1.86,1.86,0,1,0,1.86-1.86A1.86,1.86,0,0,0,16.76,14.46Z"/><path class="cls-2" d="M22.6,21.91,27,16.65l.27.29c1.2,1.41,2.41,2.81,3.61,4.23a1,1,0,0,1,.19.51,6,6,0,0,1,0,.85.67.67,0,0,1-.63.69H16.68l3.46-3.46,1,1a1.08,1.08,0,0,0,.71.39c.15,0,.3.2.43.32A4,4,0,0,1,22.6,21.91Z"/><path d="M16.76,14.46a1.86,1.86,0,1,1,1.87,1.85A1.86,1.86,0,0,1,16.76,14.46Zm2.28,0a.42.42,0,0,0-.45-.41.39.39,0,0,0-.39.42.43.43,0,0,0,.42.45A.46.46,0,0,0,19,14.44Z"/><path class="cls-2" d="M19,14.44a.46.46,0,0,1-.42.46.43.43,0,0,1-.42-.45.39.39,0,0,1,.39-.42A.42.42,0,0,1,19,14.44Z"/><path class="cls-2" d="M26.69,29.68a1.77,1.77,0,0,1-.5-.07c-3-.79-6-1.6-9-2.4L13.1,26.12,12,25.82a1.58,1.58,0,0,1-1.16-1.92c.35-1.41.72-2.82,1.09-4.22l.36-1.37.38.1-.5,2-.9,3.47a1.21,1.21,0,0,0,1,1.63l14,3.74a2.05,2.05,0,0,0,.51.08c.6,0,1-.37,1.17-1.09l.32-1.28.37.1-.15.65c-.07.25-.13.5-.19.75A1.55,1.55,0,0,1,26.69,29.68Z"/><path class="cls-2" d="M12,17.71a.64.64,0,0,0-.06.1c-.52,2-1.06,4-1.55,6a2.08,2.08,0,0,0,1.5,2.52l1.63.44L26.06,30.1a2.37,2.37,0,0,0,.63.08,2,2,0,0,0,2-1.63l.26-1c.07-.28.13-.56.21-.86l-1.35-.33c-.15.61-.3,1.19-.44,1.76s-.32.71-.68.71a1.42,1.42,0,0,1-.38-.06L12.34,25a.73.73,0,0,1-.6-1l1.48-5.68c0-.07,0-.15,0-.24L12,17.71Z"/></g></g></svg>