<svg xmlns="http://www.w3.org/2000/svg" viewBox="0 0 40.97 40.97"><defs><style>.cls-1{fill-rule:evenodd;}.cls-2{fill:#fff;}</style></defs><title>Recurso 7</title><g id="Capa_2" data-name="Capa 2"><g id="Capa_1-2" data-name="Capa 1"><path class="cls-1" d="M20.48,0A20.49,20.49,0,1,1,0,20.48,20.48,20.48,0,0,1,20.48,0"/><path d="M13,30a1.51,1.51,0,0,1-1.44-1.4V10.78a1.48,1.48,0,0,1,1.26-1.57,1.42,1.42,0,0,1,.29,0h.19v1.08c0,.9,0,1.8,0,2.7a2.05,2.05,0,0,0,.57,1.52,2,2,0,0,0,1.49.6c.75,0,1.44,0,2.14,0h2.89A1.93,1.93,0,0,0,22.53,13V9.18h.59c2.15,2,4.27,3.89,6.39,5.84,0,4.44,0,9,0,13.49A1.49,1.49,0,0,1,28,30H13Zm2.39-12.06a1.59,1.59,0,0,0-1.73,1.73v6.49a1.59,1.59,0,0,0,1.73,1.73H25.64a1.59,1.59,0,0,0,1.73-1.72V19.59a1.58,1.58,0,0,0-1.7-1.7H15.42Z"/><path class="cls-2" d="M12.83,9.72c0,.18,0,.37,0,.55,0,.9,0,1.8,0,2.69a2.5,2.5,0,0,0,2.56,2.63h.06l2.07,0h3A2.4,2.4,0,0,0,23,13V9.77L29,15.2V28.51a1,1,0,0,1-.95.94H13a1,1,0,0,1-.94-.93V10.78a1,1,0,0,1,.74-1.06m7.73,7.67H15.42a2.09,2.09,0,0,0-2.23,2.23v6.49a2.09,2.09,0,0,0,2.23,2.24H25.64a2.09,2.09,0,0,0,2.23-2.22V19.59a2.08,2.08,0,0,0-2.2-2.2H20.56m2.1-8.71H22V13a1.41,1.41,0,0,1-1.53,1.55h-3l-2.09,0h0A1.5,1.5,0,0,1,13.82,13c0-1.29,0-2.59,0-3.89V8.7h-.69a2.3,2.3,0,0,0-.37,0,2,2,0,0,0-1.68,2.07V28.59A2,2,0,0,0,13,30.45H28A2,2,0,0,0,30,28.51q0-6.78,0-13.58a.39.39,0,0,0-.11-.28c-2.13-2-4.26-3.9-6.4-5.85a.47.47,0,0,0-.2-.12Zm-2.1,9.71h5.11a1.09,1.09,0,0,1,1.2,1.2v6.53a1.1,1.1,0,0,1-1.23,1.22H15.42a1.11,1.11,0,0,1-1.23-1.24V19.62a1.1,1.1,0,0,1,1.23-1.23h5.14Z"/><path class="cls-2" d="M15,8.69h5.83a2.26,2.26,0,0,1,0,.26V13c0,.37,0,.42-.42.42H15.39c-.24,0-.4-.06-.4-.33,0-1.43,0-2.85,0-4.28A.74.74,0,0,1,15,8.69Z"/><path class="cls-2" d="M20.53,22.29h-4c-.38,0-.45.07-.46.44v.14c0,.51,0,.56.55.56h7.72c.71,0,.71,0,.71-.7,0-.37-.08-.44-.46-.44Z"/><path class="cls-2" d="M20.53,24.89H16.45c-.33,0-.4.08-.41.41v.23c0,.45.05.49.49.49h7.83c.65,0,.65,0,.65-.66,0-.41-.05-.47-.46-.47Z"/><path class="cls-2" d="M20.56,19.71H16.7c-.66,0-.66,0-.66.67,0,.4.07.46.47.46h7.85c.66,0,.66,0,.66-.66,0-.41-.05-.47-.46-.47Z"/><path d="M16.54,22.94V22.8h8a.71.71,0,0,1,0,.14h-8Z"/><path class="cls-2" d="M18.18,22.29H16.5c-.38,0-.45.07-.46.44v.14c0,.51,0,.56.55.56h7.74c.69,0,.69,0,.69-.7,0-.37-.08-.44-.46-.44H18.18Z"/><path d="M16.54,25.52V25.4h8v.13h-8Z"/><path class="cls-2" d="M22.87,24.89H16.45c-.33,0-.4.08-.41.41v.23c0,.45.05.49.49.49h7.85c.63,0,.63,0,.63-.66,0-.41-.05-.47-.46-.47Z"/><path d="M16.54,20.34v-.13h8a.53.53,0,0,1,0,.13h-8Z"/><path class="cls-2" d="M22.82,19.71H16.7c-.66,0-.66,0-.66.67,0,.4.07.46.47.46h7.85c.66,0,.66,0,.66-.66,0-.41-.05-.47-.46-.47Z"/></g></g></svg>