<svg xmlns="http://www.w3.org/2000/svg" viewBox="0 0 40.97 40.97"><defs><style>.cls-1{fill-rule:evenodd;}.cls-2{fill:#fff;}</style></defs><title>Recurso 11</title><g id="Capa_2" data-name="Capa 2"><g id="Capa_1-2" data-name="Capa 1"><path class="cls-1" d="M20.48,0A20.49,20.49,0,1,1,0,20.48,20.48,20.48,0,0,1,20.48,0"/><path class="cls-2" d="M15.68,29.51a1.61,1.61,0,0,1-1.08-.69,1.83,1.83,0,0,1-.31-.9c0-.11,0-.21,0-.31V15.69h12.4c0,.07,0,.13,0,.19V27.65a1.89,1.89,0,0,1-.63,1.51,1.73,1.73,0,0,1-.78.35ZM23,22.17v4.47c0,.35.14.54.39.53s.39-.19.39-.54V17.72c0-.37-.14-.56-.4-.56s-.38.19-.38.56Zm-5,0V17.7c0-.35-.14-.54-.39-.54s-.39.19-.39.54v8.94a1.06,1.06,0,0,0,0,.25.41.41,0,0,0,.37.29.39.39,0,0,0,.37-.32,1.23,1.23,0,0,0,0-.27Zm2.1,0c0,1.48,0,2.95,0,4.43a2.09,2.09,0,0,0,0,.25.38.38,0,0,0,.36.32.37.37,0,0,0,.38-.29,1.24,1.24,0,0,0,0-.27v-9a.41.41,0,0,0-.4-.42.39.39,0,0,0-.38.43,1,1,0,0,0,0,.17Z"/><path class="cls-2" d="M20.5,13H27a1,1,0,0,1,1,.52,1,1,0,0,1-.64,1.41,2,2,0,0,1-.34,0H14a1,1,0,0,1-1.06-.71A1,1,0,0,1,13.78,13H20.5Z"/><path class="cls-2" d="M24.48,12.54h-.77v-1a1,1,0,0,0-1.08-1.13h-4.3a1,1,0,0,0-1.07,1.08c0,.3,0,.61,0,.91,0,.13,0,.17-.17.16h-.64A12.4,12.4,0,0,1,16.53,11,1.73,1.73,0,0,1,18.3,9.63c1.46,0,2.92,0,4.37,0A1.76,1.76,0,0,1,24.43,11a1.13,1.13,0,0,1,.05.32Z"/></g></g></svg>