<svg xmlns="http://www.w3.org/2000/svg" viewBox="0 0 40 40"><defs><style>.cls-1{fill:#fff;}</style></defs><title>Recurso 16</title><g id="Capa_2" data-name="Capa 2"><g id="Capa_1-2" data-name="Capa 1"><path d="M40,19.14v1.72c0,.18-.06.35-.08.53-.13.89-.19,1.79-.37,2.66a19.7,19.7,0,0,1-7.42,11.79,19.39,19.39,0,0,1-10,4L20.55,40h-1.1l-.69-.1c-.93-.12-1.88-.18-2.8-.38A19.64,19.64,0,0,1,3.6,31.33,19.19,19.19,0,0,1,.17,22.17C.12,21.63.06,21.09,0,20.55V19.38c0-.2.07-.38.09-.58.09-.78.13-1.58.27-2.35A19.54,19.54,0,0,1,5.85,5.94,19.59,19.59,0,0,1,17.17.24c.66-.1,1.31-.16,2-.24h1.72l.57.08c.59.07,1.17.1,1.75.2A19.72,19.72,0,0,1,35.24,7.11a19.42,19.42,0,0,1,4.52,10C39.85,17.8,39.92,18.47,40,19.14Z"/><path class="cls-1" d="M14.45,17.21A5.55,5.55,0,1,0,20,11.64,5.53,5.53,0,0,0,14.45,17.21Z"/><path class="cls-1" d="M20.27,35.38A15.71,15.71,0,0,1,10.36,32a.43.43,0,0,1-.19-.52,9.82,9.82,0,0,1,7.46-7.74,10,10,0,0,1,12.22,7.79.38.38,0,0,1-.18.45A15,15,0,0,1,22,35.22C21.36,35.3,20.67,35.35,20.27,35.38Z"/></g></g></svg>